<svg id="Défaites_icon" data-name="Défaites icon" xmlns="http://www.w3.org/2000/svg" xmlns:xlink="http://www.w3.org/1999/xlink" width="43.847" height="47.632" viewBox="0 0 43.847 47.632">
  <defs>
    <clipPath id="clip-path">
      <rect id="Rectangle_530" data-name="Rectangle 530" width="43.847" height="39.485" fill="#a5a5a5"/>
    </clipPath>
    <clipPath id="clip-path-2">
      <rect id="Rectangle_595" data-name="Rectangle 595" width="29.117" height="35.667" fill="none"/>
    </clipPath>
  </defs>
  <g id="Niveau_contour" data-name="Niveau contour" transform="translate(0)">
    <g id="Tracé_979" data-name="Tracé 979" transform="translate(21.923 2.23) rotate(45)" fill="none">
      <path d="M.15.15,30.377,0l-.15,30.227L0,30.377Z" stroke="none"/>
      <path d="M 28.36652565002441 2.009975433349609 L 2.139812469482422 2.139812469482422 L 2.009975433349609 28.36652565002441 L 28.23669815063477 28.23669815063477 L 28.36652565002441 2.009975433349609 M 30.37650489807129 -3.814697265625e-06 L 30.22687530517578 30.22687530517578 L -3.814697265625e-06 30.37650489807129 L 0.1496353149414062 0.1496353149414062 L 30.37650489807129 -3.814697265625e-06 Z" stroke="none" fill="#a5a5a5"/>
    </g>
    <g id="Union_19" data-name="Union 19" transform="translate(0.444)" fill="none">
      <path d="M0,26.364l1.341-1.327L0,23.709l1.233-1.22L0,21.268,21.479,0,42.959,21.268l-1.233,1.22,1.233,1.22-1.341,1.328,1.341,1.327L21.479,47.632Z" stroke="none"/>
      <path d="M 21.47940063476562 46.22432708740234 L 41.53753280639648 26.36369895935059 L 40.19684219360352 25.03619956970215 L 41.53753280639648 23.70870208740234 L 40.30500030517578 22.48830032348633 L 41.53753280639648 21.26789855957031 L 21.47940063476562 1.40727162361145 L 1.421268343925476 21.26789855957031 L 2.65380072593689 22.48830032348633 L 1.421267986297607 23.70870208740234 L 2.761960744857788 25.03619956970215 L 1.421266913414001 26.36369895935059 L 21.47940063476562 46.22432708740234 M 21.47940063476562 47.63159942626953 L 6.347656267280399e-07 26.36369895935059 L 1.340700626373291 25.03619956970215 L 6.347656267280399e-07 23.70870018005371 L 1.232540607452393 22.48830032348633 L 6.347656267280399e-07 21.26790046691895 L 21.47940063476562 -2.868652302367991e-07 L 42.95880126953125 21.26790046691895 L 41.72626113891602 22.48830032348633 L 42.95880126953125 23.70870018005371 L 41.61809921264648 25.03619956970215 L 42.95880126953125 26.36369895935059 L 21.47940063476562 47.63159942626953 Z" stroke="none" fill="#a5a5a5"/>
    </g>
    <path id="Tracé_688" data-name="Tracé 688" d="M.034.034,6.875,0,0,6.875Z" transform="translate(21.923 2.798) rotate(45)" fill="#a5a5a5"/>
    <path id="Tracé_690" data-name="Tracé 690" d="M.033.033,6.644,0,0,6.644Z" transform="translate(21.923 45.023) rotate(-135)" fill="#a5a5a5"/>
    <g id="Groupe_1686" data-name="Groupe 1686" transform="translate(0 4.073)">
      <g id="Groupe_1686-2" data-name="Groupe 1686" transform="translate(0 0)" opacity="0.388" clip-path="url(#clip-path)">
        <path id="Tracé_693" data-name="Tracé 693" d="M117.822,4.45l4.217,7.232,1.044-2.34-1.3-2.235-.377.215L120.224,5.3l-.59-1.011-.295-.505-.147-.253-.051-.086-.057-.092c-.039-.061-.079-.12-.119-.178a5.942,5.942,0,0,0-1.087-1.162,7.234,7.234,0,0,0-1.254-.831A6.994,6.994,0,0,0,115.2.625,5.9,5.9,0,0,0,114.41.47c-.138-.017-.28-.03-.425-.035l-.109,0h-.25V0h-2.607l-1.524,2.065h4.217a4.473,4.473,0,0,1,2,.49,5.3,5.3,0,0,1,1.65,1.233l-1.43,1.225a3.5,3.5,0,0,0-1.193-.842,2.987,2.987,0,0,0-.665-.207,1.663,1.663,0,0,0-.267-.026h-.563v.549h.557a1.112,1.112,0,0,1,.177.018,2.421,2.421,0,0,1,.538.169,3.233,3.233,0,0,1,.568.32,2.5,2.5,0,0,1,.429.378,1.429,1.429,0,0,1,.089.113c.029.044.013.016.106.176l2.345,4.021.48-.274-2.344-4.021Z" transform="translate(-84.2)" fill="#a5a5a5"/>
        <path id="Tracé_694" data-name="Tracé 694" d="M154.539,83.756l-4.217,7.232,2.569-.274,1.3-2.235-.377-.215,2.358-4.045,1.179-2.022.59-1.011.074-.126.091-.159q.1-.191.189-.382a5.641,5.641,0,0,0,.273-.759l.419.116a7.2,7.2,0,0,0,.262-1.758,7.454,7.454,0,0,0-.159-1.75A6.436,6.436,0,0,0,157.8,75.7a4.565,4.565,0,0,0-.664-.194,2.793,2.793,0,0,0-.327-.05l-.322-.034c.088.152.179.3.252.452a3.829,3.829,0,0,1,.189.476,4.891,4.891,0,0,1,.207,1.007,5.309,5.309,0,0,1-.183,2.04,3.965,3.965,0,0,1-.179.481,4.458,4.458,0,0,1-.244.454l-.527.9-1.054,1.808-1.637-.936,1.172-2.011.293-.5.147-.251.065-.111c.009-.016.019-.033.028-.051a2.293,2.293,0,0,0,.193-.59l-.544-.105a1.741,1.741,0,0,1-.144.446l-.518.891-1.172,2.01-.415.711-2.344,4.021.48.274L152.9,82.82Z" transform="translate(-115.407 -58.172)" fill="#a5a5a5"/>
        <path id="Tracé_695" data-name="Tracé 695" d="M64.659,155.429H57.806c-.177,0-.351,0-.521-.01a4.235,4.235,0,0,1-1.012-.21,4.675,4.675,0,0,0,.567,1.2,4.062,4.062,0,0,0,.453.565c.043.046.089.09.136.134l.072.065a.359.359,0,0,1,.034.033l.024.032.191.258h2.606v-.43H69.79v.43H72.4l.381-.516a1.469,1.469,0,0,1,.1-.129c.045-.044.089-.087.131-.132.084-.089.162-.18.235-.273a4.306,4.306,0,0,0,.643-1.165,3.9,3.9,0,0,1-1.021.15H65.488v-1.872h4.689v-.549H59.97v.549h4.689Z" transform="translate(-43.273 -118.009)" fill="#a5a5a5"/>
        <path id="Tracé_696" data-name="Tracé 696" d="M4.178,82.119,3.123,80.311l-.526-.9a3.9,3.9,0,0,1-.365-.956A5.417,5.417,0,0,1,2.144,76.4a4.548,4.548,0,0,1,.258-.994,3.343,3.343,0,0,1,.22-.462l.263-.452-.642.069a2.877,2.877,0,0,0-.668.138,6.125,6.125,0,0,0-1.332.61A7.265,7.265,0,0,0,0,77.071a7.388,7.388,0,0,0,.177,1.751L.6,78.728a5.527,5.527,0,0,0,.577,1.518l.6,1.024,1.179,2.022,2.359,4.045-.377.215,1.3,2.235,2.569.275L4.592,82.829l1.637-.936,2.345,4.021.48-.274L6.709,81.619l-.414-.711L5.123,78.9l-.293-.5-.1-.166c-.011-.021-.023-.046-.036-.076a2.1,2.1,0,0,1-.134-.506l-.548.08a2.647,2.647,0,0,0,.172.64c.018.043.037.082.056.117l.033.059.073.126.293.5,1.172,2.011Z" transform="translate(0 -57.457)" fill="#a5a5a5"/>
        <path id="Tracé_697" data-name="Tracé 697" d="M27.789,3.611A5.471,5.471,0,0,1,29.5,2.454a4.962,4.962,0,0,1,.988-.314A3.923,3.923,0,0,1,31,2.072c.17-.01.347,0,.523-.006h4.217L34.21,0H31.6V.43h-.458c-.074,0-.146,0-.218.007a5.483,5.483,0,0,0-.824.11,6.719,6.719,0,0,0-1.463.495,7.35,7.35,0,0,0-1.286.773A6.327,6.327,0,0,0,26.227,2.9q-.129.16-.249.336c-.04.059-.079.119-.117.18l-.095.16-.3.505-.59,1.011L23.7,7.11,23.326,6.9l-1.3,2.235,1.044,2.34,4.218-7.229,1.6.99L26.577,9.2l.48.274,2.3-3.949a1.422,1.422,0,0,1,.184-.226,3.077,3.077,0,0,1,1.049-.672,2.089,2.089,0,0,1,.5-.131.8.8,0,0,1,.081-.006h.814V3.937h-.829c-.039,0-.081,0-.127.009a2.635,2.635,0,0,0-.642.164,3.632,3.632,0,0,0-1.246.8Z" transform="translate(-16.935)" fill="#a5a5a5"/>
      </g>
    </g>
  </g>
  <g id="Skull_icon" data-name="Skull icon" transform="translate(7.118 6.34)">
    <g id="Groupe_1859" data-name="Groupe 1859" clip-path="url(#clip-path-2)">
      <path id="Tracé_1108" data-name="Tracé 1108" d="M1.551,21.3c-.9,1.2.028,7.122,1.148,7.532.083.028.948.052,1.045.056,2.4.083,4.319-1.66,3.807,3.168-.088.828-.237,1.693.689,1.981h0a.52.52,0,0,1,.3.236,2.87,2.87,0,0,0,1.708.884h0a.642.642,0,0,0,.819-.366c.07-.117.2-.922.343-.905h0c.119.015.222.827.274.933.322.649.568.758,1.45.837.493.044.962-.056,1.13-.655.035-.125.153-.95.286-.95h0c.133,0,.251.825.286.95.168.6.638.7,1.13.655.882-.078,1.128-.187,1.45-.837.052-.106.155-.918.274-.933h0c.138-.017.273.788.343.905a.642.642,0,0,0,.819.366h0a2.869,2.869,0,0,0,1.708-.884.521.521,0,0,1,.3-.236h0c.926-.287.777-1.153.689-1.981-.512-4.828,1.41-3.085,3.807-3.168.1,0,.961-.028,1.045-.056,1.121-.41,2.044-6.329,1.148-7.532,0,0-.182-.181.121-1.252,2.387-7.106,2.042-13.6-3.007-16.992A17.949,17.949,0,0,0,14.559,0,17.949,17.949,0,0,0,4.437,3.059C-.612,6.455-.957,12.945,1.43,20.051c.3,1.012.121,1.252.121,1.252m16.216-.7a15,15,0,0,1,3.253-1.156,3.689,3.689,0,0,1,2.494.149c1.226.538,1.741,2.3,1.589,3.935-.2,2.179-1.539,2.54-3.706,2.07a12.348,12.348,0,0,1-3.638-1.409c-1.608-.956-1.628-2.666.009-3.589m-2.324,4.488c.644,1.093,1.963,3.6,1.633,4.33a2.631,2.631,0,0,1-1.316.856c-.5.069-.584-1.1-1.237-1.124-.628.025-.667,1.134-1.154,1.13a2.366,2.366,0,0,1-1.4-.862c-.418-.924.875-3.044,1.633-4.33a1.132,1.132,0,0,1,1.84,0M5.6,19.59A3.689,3.689,0,0,1,8.1,19.442,15,15,0,0,1,11.351,20.6c1.637.923,1.617,2.633.009,3.589a12.346,12.346,0,0,1-3.638,1.409c-2.167.47-3.5.109-3.706-2.07-.152-1.631.362-3.4,1.589-3.935" transform="translate(0 0)" fill="#fff"/>
    </g>
  </g>
</svg>
