<svg id="Temps_de_jeu_cumulé_icon" data-name="Temps de jeu cumulé icon" xmlns="http://www.w3.org/2000/svg" xmlns:xlink="http://www.w3.org/1999/xlink" width="43.415" height="67.018" viewBox="0 0 43.415 67.018">
  <defs>
    <clipPath id="clip-path">
      <rect id="Rectangle_530" data-name="Rectangle 530" width="43.415" height="39.485" fill="#a5a5a5"/>
    </clipPath>
    <clipPath id="clip-path-2">
      <rect id="Rectangle_550" data-name="Rectangle 550" width="43.414" height="67.018" fill="#fff"/>
    </clipPath>
  </defs>
  <g id="Niveau_contour" data-name="Niveau contour" transform="translate(-20.998 -141.093)">
    <g id="Rectangle_519" data-name="Rectangle 519" transform="translate(42.706 152.226) rotate(45)" fill="none" stroke="#a5a5a5" stroke-width="2">
      <rect width="30.077" height="30.077" stroke="none"/>
      <rect x="1" y="1" width="28.077" height="28.077" fill="none"/>
    </g>
    <g id="Union_19" data-name="Union 19" transform="translate(21.438 149.785)" fill="none">
      <path d="M0,26.364l1.328-1.328L0,23.709l1.221-1.221L0,21.268,21.268,0,42.536,21.268l-1.22,1.22,1.22,1.221-1.327,1.327,1.327,1.328L21.268,47.632Z" stroke="none"/>
      <path d="M 21.26826286315918 46.21736526489258 L 41.12162780761719 26.36412048339844 L 39.79452514648438 25.03666877746582 L 41.12165451049805 23.70926856994629 L 39.90119552612305 22.48868942260742 L 41.12157440185547 21.26825332641602 L 21.26826667785645 1.414226174354553 L 1.414316654205322 21.26815795898438 L 2.635185718536377 22.48868942260742 L 1.414328217506409 23.70927238464355 L 2.741835594177246 25.03666877746582 L 1.414244294166565 26.36420631408691 L 21.26826286315918 46.21736526489258 M 21.26827621459961 47.63155746459961 L 5.671386588801397e-06 26.36420822143555 L 1.32757568359375 25.03668785095215 L 5.671386588801397e-06 23.709228515625 L 1.220795631408691 22.48870849609375 L 5.671386588801397e-06 21.26824951171875 L 21.26827621459961 -1.267700213247736e-06 L 42.5357551574707 21.26824951171875 L 41.31535720825195 22.48870849609375 L 42.5357551574707 23.709228515625 L 41.20857620239258 25.03668785095215 L 42.5357551574707 26.36420822143555 L 21.26827621459961 47.63155746459961 Z" stroke="none" fill="#a5a5a5"/>
    </g>
    <path id="Tracé_688" data-name="Tracé 688" d="M0,0H6.807L0,6.807Z" transform="translate(42.706 152.631) rotate(45)" fill="#a5a5a5"/>
    <path id="Tracé_690" data-name="Tracé 690" d="M0,0H6.578L0,6.578Z" transform="translate(42.706 194.762) rotate(-135)" fill="#a5a5a5"/>
    <g id="Groupe_1686" data-name="Groupe 1686" transform="translate(20.998 153.859)">
      <g id="Groupe_1686-2" data-name="Groupe 1686" transform="translate(0 0)" opacity="0.388" clip-path="url(#clip-path)">
        <path id="Tracé_693" data-name="Tracé 693" d="M117.74,4.45l4.175,7.232,1.034-2.34-1.29-2.235-.373.215L120.118,5.3l-.584-1.011-.292-.505-.146-.253-.051-.086-.056-.092c-.038-.061-.078-.12-.118-.178A5.919,5.919,0,0,0,117.8,2.013a7.157,7.157,0,0,0-1.242-.831,6.884,6.884,0,0,0-1.406-.557,5.789,5.789,0,0,0-.786-.155c-.137-.017-.277-.03-.42-.035l-.108,0h-.247V0H111l-1.509,2.065h4.175a4.394,4.394,0,0,1,1.977.49,5.249,5.249,0,0,1,1.633,1.233l-1.416,1.225a3.465,3.465,0,0,0-1.181-.842,2.937,2.937,0,0,0-.659-.207,1.63,1.63,0,0,0-.264-.026H113.2v.549h.552a1.091,1.091,0,0,1,.175.018,2.38,2.38,0,0,1,.533.169,3.193,3.193,0,0,1,.562.32,2.478,2.478,0,0,1,.425.378,1.426,1.426,0,0,1,.089.113c.029.044.013.016.1.176l2.321,4.021.475-.274-2.321-4.021Z" transform="translate(-84.449)" fill="#a5a5a5"/>
        <path id="Tracé_694" data-name="Tracé 694" d="M154.495,83.756l-4.175,7.232,2.544-.274,1.29-2.235-.373-.215,2.335-4.045,1.167-2.022.584-1.011.073-.126.09-.159q.1-.191.187-.382a5.678,5.678,0,0,0,.27-.759l.414.116a7.265,7.265,0,0,0,.259-1.758,7.527,7.527,0,0,0-.158-1.75,6.35,6.35,0,0,0-1.275-.664,4.486,4.486,0,0,0-.657-.194,2.74,2.74,0,0,0-.324-.05l-.318-.034c.087.152.178.3.249.452a3.853,3.853,0,0,1,.187.476,4.933,4.933,0,0,1,.2,1.007,5.359,5.359,0,0,1-.181,2.04,3.992,3.992,0,0,1-.177.481,4.474,4.474,0,0,1-.242.454l-.522.9L154.9,83.046l-1.621-.936,1.161-2.011.29-.5.145-.251.064-.111c.009-.016.018-.033.027-.051a2.309,2.309,0,0,0,.191-.59l-.538-.105a1.753,1.753,0,0,1-.142.446l-.513.891-1.16,2.01-.411.711-2.321,4.021.475.274,2.321-4.021Z" transform="translate(-115.749 -58.172)" fill="#a5a5a5"/>
        <path id="Tracé_695" data-name="Tracé 695" d="M64.576,155.429H57.791c-.175,0-.348,0-.516-.01a4.158,4.158,0,0,1-1-.21,4.7,4.7,0,0,0,.562,1.2,4.055,4.055,0,0,0,.449.565c.043.046.088.09.134.134l.071.065a.357.357,0,0,1,.034.033l.024.032.189.258h2.581v-.43h9.341v.43h2.581l.377-.516a1.468,1.468,0,0,1,.1-.129c.045-.044.088-.087.13-.132.083-.089.161-.18.233-.273a4.319,4.319,0,0,0,.637-1.165,3.827,3.827,0,0,1-1.011.15H65.4v-1.872H70.04v-.549H59.933v.549h4.643Z" transform="translate(-43.401 -118.009)" fill="#a5a5a5"/>
        <path id="Tracé_696" data-name="Tracé 696" d="M4.137,82.119,3.093,80.311l-.521-.9a3.922,3.922,0,0,1-.361-.956A5.47,5.47,0,0,1,2.123,76.4a4.584,4.584,0,0,1,.255-.994,3.358,3.358,0,0,1,.218-.462l.261-.452-.636.069a2.825,2.825,0,0,0-.661.138,6.036,6.036,0,0,0-1.318.61A7.333,7.333,0,0,0,0,77.071a7.459,7.459,0,0,0,.175,1.751l.42-.094a5.561,5.561,0,0,0,.571,1.518l.59,1.024,1.167,2.022,2.335,4.045-.373.215,1.291,2.235,2.544.275L4.547,82.829l1.621-.936,2.321,4.021.475-.274L6.643,81.619l-.41-.711L5.072,78.9l-.29-.5-.095-.166c-.011-.021-.023-.046-.036-.076a2.12,2.12,0,0,1-.133-.506l-.543.08a2.667,2.667,0,0,0,.17.64c.018.043.037.082.055.117l.033.059.073.126.29.5,1.161,2.011Z" transform="translate(0 -57.457)" fill="#a5a5a5"/>
        <path id="Tracé_697" data-name="Tracé 697" d="M27.732,3.611a5.415,5.415,0,0,1,1.69-1.157,4.878,4.878,0,0,1,.978-.314,3.848,3.848,0,0,1,.507-.068c.169-.01.343,0,.518-.006H35.6L34.09,0H31.509V.43h-.454c-.073,0-.145,0-.216.007a5.379,5.379,0,0,0-.816.11,6.608,6.608,0,0,0-1.448.495,7.263,7.263,0,0,0-1.273.773A6.292,6.292,0,0,0,26.186,2.9q-.127.16-.246.336c-.04.059-.078.119-.116.18l-.094.16-.292.505-.584,1.011L23.686,7.11,23.314,6.9,22.023,9.13l1.034,2.34,4.176-7.229,1.589.99L26.532,9.2l.475.274,2.28-3.949A1.42,1.42,0,0,1,29.47,5.3a3.044,3.044,0,0,1,1.038-.672,2.052,2.052,0,0,1,.5-.131.785.785,0,0,1,.08-.006h.806V3.937h-.82c-.038,0-.081,0-.126.009a2.588,2.588,0,0,0-.635.164,3.592,3.592,0,0,0-1.234.8Z" transform="translate(-16.986)" fill="#a5a5a5"/>
      </g>
    </g>
  </g>
  <g id="Coupe_icon" data-name="Coupe icon" transform="translate(-45.672 -42.067)">
    <path id="Union_23" data-name="Union 23" d="M0,55.02a27.939,27.939,0,0,1,2.405-8.958,17.344,17.344,0,0,1,6.267-7.488,12.988,12.988,0,0,0,5.5-7.031,12.989,12.989,0,0,0,5.5,7.031,17.334,17.334,0,0,1,6.27,7.488,27.868,27.868,0,0,1,2.4,8.958ZM8.672,16.444a17.344,17.344,0,0,1-6.267-7.49A27.93,27.93,0,0,1,0,0H28.336a27.858,27.858,0,0,1-2.4,8.954,17.352,17.352,0,0,1-6.27,7.49,12.989,12.989,0,0,0-5.5,7.031A12.988,12.988,0,0,0,8.672,16.444Z" transform="translate(53.211 47.98)" fill="#0e1523" stroke="rgba(0,0,0,0)" stroke-width="1"/>
    <g id="Groupe_1732" data-name="Groupe 1732" transform="translate(45.672 42.067)">
      <g id="Groupe_1731" data-name="Groupe 1731" clip-path="url(#clip-path-2)">
        <path id="Tracé_969" data-name="Tracé 969" d="M42.928,0H.487A.487.487,0,0,0,0,.487V3.1a.487.487,0,0,0,.487.487h3.38A32.083,32.083,0,0,0,6.749,16.746,20.773,20.773,0,0,0,14.326,25.7a9.256,9.256,0,0,1,0,15.616,20.774,20.774,0,0,0-7.577,8.954A32.086,32.086,0,0,0,3.867,63.436H.487A.486.486,0,0,0,0,63.922v2.61a.486.486,0,0,0,.487.487H42.928a.487.487,0,0,0,.486-.487v-2.61a.487.487,0,0,0-.486-.486h-3.38a32.081,32.081,0,0,0-2.883-13.164,20.773,20.773,0,0,0-7.577-8.954,9.255,9.255,0,0,1,0-15.616,20.772,20.772,0,0,0,7.577-8.954A32.08,32.08,0,0,0,39.548,3.583h3.38a.487.487,0,0,0,.486-.487V.487A.487.487,0,0,0,42.928,0M7.758,60.677a27.457,27.457,0,0,1,2.367-8.817A17.075,17.075,0,0,1,16.3,44.486a12.79,12.79,0,0,0,5.411-6.921,12.79,12.79,0,0,0,5.411,6.921,17.076,17.076,0,0,1,6.171,7.375,27.459,27.459,0,0,1,2.367,8.817ZM21.707,29.453A12.79,12.79,0,0,0,16.3,22.532a17.076,17.076,0,0,1-6.171-7.375A27.461,27.461,0,0,1,7.758,6.341h27.9a27.455,27.455,0,0,1-2.367,8.816,17.078,17.078,0,0,1-6.171,7.375,12.789,12.789,0,0,0-5.411,6.921" fill="#fff"/>
        <path id="Tracé_970" data-name="Tracé 970" d="M140.159,141.526a.486.486,0,0,0-.44-.694H120.665a.487.487,0,0,0-.44.694,15.313,15.313,0,0,0,5.5,6.62,14.488,14.488,0,0,1,4.076,3.786.486.486,0,0,0,.786,0,14.487,14.487,0,0,1,4.076-3.786,15.311,15.311,0,0,0,5.5-6.619" transform="translate(-108.485 -127.129)" fill="#fff"/>
        <path id="Tracé_971" data-name="Tracé 971" d="M118.99,540.448c-1.259-.437-2.449-.849-3.388-1.255-1.277-.553-1.533-.863-1.584-.97a.486.486,0,0,0-.88,0c-.051.108-.306.418-1.584.97-.939.406-2.129.819-3.388,1.255-3.808,1.32-6.138,2.212-6.383,3.465a.486.486,0,0,0,.477.58H124.9a.486.486,0,0,0,.477-.58c-.245-1.253-2.575-2.145-6.383-3.465" transform="translate(-91.871 -485.601)" fill="#fff"/>
      </g>
    </g>
  </g>
</svg>
