<svg id="Victoires_icon" data-name="Victoires icon" xmlns="http://www.w3.org/2000/svg" xmlns:xlink="http://www.w3.org/1999/xlink" width="43.415" height="47.632" viewBox="0 0 43.415 47.632">
  <defs>
    <clipPath id="clip-path">
      <rect id="Rectangle_530" data-name="Rectangle 530" width="43.415" height="39.485" fill="#a5a5a5"/>
    </clipPath>
    <clipPath id="clip-path-2">
      <path id="Tracé_966" data-name="Tracé 966" d="M21.939,14.2c-.437.007-.7.561-.19,1.148a10.191,10.191,0,0,1,2.408,4.523c1.027,4.46.8,8.869,1.648,13.163.68,3.428,2.987,4.347,5.008,5.063a6.414,6.414,0,0,0,0,1.215,1.219,1.219,0,0,0,.444.743c.532.431.943.8.951,1.214.043,2.263-1.247,2.977-2.662,3.511-.622.234-.4.79-.037,1.266a.582.582,0,0,1-.1.837,3.663,3.663,0,0,1-1.674.908,3.12,3.12,0,0,0-2.166,2.094H41.29a3.122,3.122,0,0,0-2.166-2.094,3.659,3.659,0,0,1-1.673-.908.582.582,0,0,1-.1-.837c.366-.475.585-1.032-.037-1.266-1.415-.534-2.705-1.248-2.662-3.511.008-.414.419-.783.951-1.214a1.218,1.218,0,0,0,.443-.743,6.367,6.367,0,0,0,0-1.215c2.02-.716,4.328-1.635,5.008-5.063.852-4.294.621-8.7,1.648-13.163a10.186,10.186,0,0,1,2.409-4.523c.513-.587.248-1.141-.19-1.148-3.8-.063-7.641-.094-11.485-.094s-7.7.031-11.5.094" transform="translate(-21.468 -14.107)" fill="#fdfdfd"/>
    </clipPath>
    <clipPath id="clip-path-3">
      <path id="Tracé_967" data-name="Tracé 967" d="M1.586.646C-.5,2.04-.08,5.335.363,7.494A9.867,9.867,0,0,1,.551,11.27a.963.963,0,0,0,.658-.534c1.148,3.656,2.713,5.553,5.27,8.151a29.627,29.627,0,0,1,3.074,3.14,1.33,1.33,0,0,1,.179.37,1.009,1.009,0,0,0-.524.9.943.943,0,1,0,1.882,0,1.033,1.033,0,0,0-.252-.68,2.758,2.758,0,0,0-.627-1.323c-.269-.314-.617-.546-.878-.868a2.01,2.01,0,0,1-.376-1.3,3.19,3.19,0,0,0-.6-2.072c-.288-.306-.431-.3-.47.3-.034.524-.475.555-1.067.067-3.036-2.5-5.966-10-4.674-14.2.456-1.481,1.266-1.431,2.228-.969A2.091,2.091,0,0,0,3.028,3.419c-.557,1.79.731,3.35,2.165,4.109a10.563,10.563,0,0,0,2.319.755A.956.956,0,0,0,7.2,9a.877.877,0,1,0,1.751.1h.005l0-.01c0-.03,0-.06,0-.091a.952.952,0,0,0-.391-.778l-.173-.391c-1.327-.492-2.21-.868-2.447-2.572C5.91,5,5.733,4.991,5.539,5.29c-.286.438-.812.378-1.255-.233,1.26-.285,2.112-.819,2.133-1.905A2.8,2.8,0,0,0,3.619,0,3.685,3.685,0,0,0,1.586.646" transform="translate(0 0)" fill="#fdfdfd"/>
    </clipPath>
    <clipPath id="clip-path-4">
      <path id="Tracé_968" data-name="Tracé 968" d="M91.005,3.152c.021,1.086.873,1.62,2.133,1.9-.444.612-.969.672-1.255.233-.194-.3-.372-.293-.408-.034-.237,1.7-1.121,2.08-2.446,2.572l-.173.391A.952.952,0,0,0,88.464,9c0,.031,0,.062,0,.091l0,.01h.006A.877.877,0,1,0,90.221,9a.958.958,0,0,0-.312-.714,10.558,10.558,0,0,0,2.319-.755c1.434-.759,2.722-2.32,2.165-4.109A2.092,2.092,0,0,0,93.044,2.25c.962-.462,1.771-.513,2.227.969,1.292,4.2-1.638,11.694-4.674,14.2-.592.488-1.032.456-1.066-.067-.039-.6-.183-.607-.471-.3a3.2,3.2,0,0,0-.6,2.072,2,2,0,0,1-.376,1.3c-.261.322-.609.555-.878.868a2.766,2.766,0,0,0-.627,1.323,1.034,1.034,0,0,0-.251.68.943.943,0,1,0,1.882,0,1.008,1.008,0,0,0-.525-.9,1.33,1.33,0,0,1,.179-.37,29.649,29.649,0,0,1,3.074-3.14c2.558-2.6,4.123-4.495,5.271-8.151a.965.965,0,0,0,.658.534,9.88,9.88,0,0,1,.189-3.776c.442-2.159.865-5.454-1.223-6.848A3.687,3.687,0,0,0,93.8,0a2.8,2.8,0,0,0-2.8,3.152" transform="translate(-86.331 0)" fill="#fdfdfd"/>
    </clipPath>
  </defs>
  <g id="Niveau_contour" data-name="Niveau contour" transform="translate(0)">
    <g id="Rectangle_519" data-name="Rectangle 519" transform="translate(21.707 2.441) rotate(45)" fill="none" stroke="#a5a5a5" stroke-width="2">
      <rect width="30.077" height="30.077" stroke="none"/>
      <rect x="1" y="1" width="28.077" height="28.077" fill="none"/>
    </g>
    <g id="Union_19" data-name="Union 19" transform="translate(0.44)" fill="none">
      <path d="M0,26.364l1.328-1.328L0,23.709l1.221-1.221L0,21.268,21.268,0,42.536,21.268l-1.22,1.22,1.22,1.221-1.327,1.327,1.327,1.328L21.268,47.632Z" stroke="none"/>
      <path d="M 21.26826286315918 46.21736526489258 L 41.12162780761719 26.36412048339844 L 39.79452514648438 25.03666877746582 L 41.12165451049805 23.70926856994629 L 39.90119552612305 22.48868942260742 L 41.12157440185547 21.26825332641602 L 21.26826667785645 1.414226174354553 L 1.414316654205322 21.26815795898438 L 2.635185718536377 22.48868942260742 L 1.414328217506409 23.70927238464355 L 2.741835594177246 25.03666877746582 L 1.414244294166565 26.36420631408691 L 21.26826286315918 46.21736526489258 M 21.26827621459961 47.63155746459961 L 5.671386588801397e-06 26.36420822143555 L 1.32757568359375 25.03668785095215 L 5.671386588801397e-06 23.709228515625 L 1.220795631408691 22.48870849609375 L 5.671386588801397e-06 21.26824951171875 L 21.26827621459961 -1.267700213247736e-06 L 42.5357551574707 21.26824951171875 L 41.31535720825195 22.48870849609375 L 42.5357551574707 23.709228515625 L 41.20857620239258 25.03668785095215 L 42.5357551574707 26.36420822143555 L 21.26827621459961 47.63155746459961 Z" stroke="none" fill="#a5a5a5"/>
    </g>
    <path id="Tracé_688" data-name="Tracé 688" d="M0,0H6.807L0,6.807Z" transform="translate(21.707 2.846) rotate(45)" fill="#a5a5a5"/>
    <path id="Tracé_690" data-name="Tracé 690" d="M0,0H6.578L0,6.578Z" transform="translate(21.707 44.977) rotate(-135)" fill="#ff9031"/>
    <g id="Groupe_1686" data-name="Groupe 1686" transform="translate(0 4.073)">
      <g id="Groupe_1686-2" data-name="Groupe 1686" transform="translate(0 0)" opacity="0.388" clip-path="url(#clip-path)">
        <path id="Tracé_693" data-name="Tracé 693" d="M117.74,4.45l4.175,7.232,1.034-2.34-1.29-2.235-.373.215L120.118,5.3l-.584-1.011-.292-.505-.146-.253-.051-.086-.056-.092c-.038-.061-.078-.12-.118-.178A5.919,5.919,0,0,0,117.8,2.013a7.157,7.157,0,0,0-1.242-.831,6.884,6.884,0,0,0-1.406-.557,5.789,5.789,0,0,0-.786-.155c-.137-.017-.277-.03-.42-.035l-.108,0h-.247V0H111l-1.509,2.065h4.175a4.394,4.394,0,0,1,1.977.49,5.249,5.249,0,0,1,1.633,1.233l-1.416,1.225a3.465,3.465,0,0,0-1.181-.842,2.937,2.937,0,0,0-.659-.207,1.63,1.63,0,0,0-.264-.026H113.2v.549h.552a1.091,1.091,0,0,1,.175.018,2.38,2.38,0,0,1,.533.169,3.193,3.193,0,0,1,.562.32,2.478,2.478,0,0,1,.425.378,1.426,1.426,0,0,1,.089.113c.029.044.013.016.1.176l2.321,4.021.475-.274-2.321-4.021Z" transform="translate(-84.449)" fill="#a5a5a5"/>
        <path id="Tracé_694" data-name="Tracé 694" d="M154.495,83.756l-4.175,7.232,2.544-.274,1.29-2.235-.373-.215,2.335-4.045,1.167-2.022.584-1.011.073-.126.09-.159q.1-.191.187-.382a5.678,5.678,0,0,0,.27-.759l.414.116a7.265,7.265,0,0,0,.259-1.758,7.527,7.527,0,0,0-.158-1.75,6.35,6.35,0,0,0-1.275-.664,4.486,4.486,0,0,0-.657-.194,2.74,2.74,0,0,0-.324-.05l-.318-.034c.087.152.178.3.249.452a3.853,3.853,0,0,1,.187.476,4.933,4.933,0,0,1,.2,1.007,5.359,5.359,0,0,1-.181,2.04,3.992,3.992,0,0,1-.177.481,4.474,4.474,0,0,1-.242.454l-.522.9L154.9,83.046l-1.621-.936,1.161-2.011.29-.5.145-.251.064-.111c.009-.016.018-.033.027-.051a2.309,2.309,0,0,0,.191-.59l-.538-.105a1.753,1.753,0,0,1-.142.446l-.513.891-1.16,2.01-.411.711-2.321,4.021.475.274,2.321-4.021Z" transform="translate(-115.749 -58.172)" fill="#a5a5a5"/>
        <path id="Tracé_695" data-name="Tracé 695" d="M64.576,155.429H57.791c-.175,0-.348,0-.516-.01a4.158,4.158,0,0,1-1-.21,4.7,4.7,0,0,0,.562,1.2,4.055,4.055,0,0,0,.449.565c.043.046.088.09.134.134l.071.065a.357.357,0,0,1,.034.033l.024.032.189.258h2.581v-.43h9.341v.43h2.581l.377-.516a1.468,1.468,0,0,1,.1-.129c.045-.044.088-.087.13-.132.083-.089.161-.18.233-.273a4.319,4.319,0,0,0,.637-1.165,3.827,3.827,0,0,1-1.011.15H65.4v-1.872H70.04v-.549H59.933v.549h4.643Z" transform="translate(-43.401 -118.009)" fill="#a5a5a5"/>
        <path id="Tracé_696" data-name="Tracé 696" d="M4.137,82.119,3.093,80.311l-.521-.9a3.922,3.922,0,0,1-.361-.956A5.47,5.47,0,0,1,2.123,76.4a4.584,4.584,0,0,1,.255-.994,3.358,3.358,0,0,1,.218-.462l.261-.452-.636.069a2.825,2.825,0,0,0-.661.138,6.036,6.036,0,0,0-1.318.61A7.333,7.333,0,0,0,0,77.071a7.459,7.459,0,0,0,.175,1.751l.42-.094a5.561,5.561,0,0,0,.571,1.518l.59,1.024,1.167,2.022,2.335,4.045-.373.215,1.291,2.235,2.544.275L4.547,82.829l1.621-.936,2.321,4.021.475-.274L6.643,81.619l-.41-.711L5.072,78.9l-.29-.5-.095-.166c-.011-.021-.023-.046-.036-.076a2.12,2.12,0,0,1-.133-.506l-.543.08a2.667,2.667,0,0,0,.17.64c.018.043.037.082.055.117l.033.059.073.126.29.5,1.161,2.011Z" transform="translate(0 -57.457)" fill="#a5a5a5"/>
        <path id="Tracé_697" data-name="Tracé 697" d="M27.732,3.611a5.415,5.415,0,0,1,1.69-1.157,4.878,4.878,0,0,1,.978-.314,3.848,3.848,0,0,1,.507-.068c.169-.01.343,0,.518-.006H35.6L34.09,0H31.509V.43h-.454c-.073,0-.145,0-.216.007a5.379,5.379,0,0,0-.816.11,6.608,6.608,0,0,0-1.448.495,7.263,7.263,0,0,0-1.273.773A6.292,6.292,0,0,0,26.186,2.9q-.127.16-.246.336c-.04.059-.078.119-.116.18l-.094.16-.292.505-.584,1.011L23.686,7.11,23.314,6.9,22.023,9.13l1.034,2.34,4.176-7.229,1.589.99L26.532,9.2l.475.274,2.28-3.949A1.42,1.42,0,0,1,29.47,5.3a3.044,3.044,0,0,1,1.038-.672,2.052,2.052,0,0,1,.5-.131.785.785,0,0,1,.08-.006h.806V3.937h-.82c-.038,0-.081,0-.126.009a2.588,2.588,0,0,0-.635.164,3.592,3.592,0,0,0-1.234.8Z" transform="translate(-16.986)" fill="#a5a5a5"/>
      </g>
    </g>
  </g>
  <g id="Groupe_1725" data-name="Groupe 1725" transform="translate(3.548 4.8)">
    <g id="Groupe_1726" data-name="Groupe 1726" transform="translate(6.274 4.122)">
      <g id="Groupe_1725-2" data-name="Groupe 1725" clip-path="url(#clip-path-2)">
        <rect id="Rectangle_547" data-name="Rectangle 547" width="36.033" height="24.764" transform="translate(-0.609 35.774) rotate(-89.397)" fill="#fdfdfd"/>
      </g>
    </g>
    <g id="Groupe_1728" data-name="Groupe 1728" transform="translate(0 0)">
      <g id="Groupe_1727" data-name="Groupe 1727" clip-path="url(#clip-path-3)">
        <rect id="Rectangle_548" data-name="Rectangle 548" width="24.416" height="11.849" transform="translate(-0.759 24.292) rotate(-89.397)" fill="#fdfdfd"/>
      </g>
    </g>
    <g id="Groupe_1730" data-name="Groupe 1730" transform="translate(25.228)">
      <g id="Groupe_1729" data-name="Groupe 1729" clip-path="url(#clip-path-4)">
        <rect id="Rectangle_549" data-name="Rectangle 549" width="24.416" height="11.848" transform="matrix(0.011, -1, 1, 0.011, -0.256, 24.292)" fill="#fdfdfd"/>
      </g>
    </g>
  </g>
</svg>
